# xmcd
#
# Track frame offsets: 
#        150
#        17858
#        38363
#        58842
#        76412
#        90122
#        109871
#        140087
#        158555
#        178832
#
# Disc length: 2657 seconds
#
# Revision: 0
# Processed by: cddbd v1.4PL0 Copyright (c) Steve Scherf et al.
# Submitted via: ExactAudioCopy v0.90a11
#
DISCID=750a5f0a
DTITLE=Little Bill Englehart and The Bluenotes - Naked Blues
DYEAR=1900
DGENRE=
TTITLE0=Never Been to Mississippi
TTITLE1=It's My Own Fault
TTITLE2=Hard Times
TTITLE3=Next Stop, Barkesfield
TTITLE4=Ain't No Way
TTITLE5=Early in the Morning
TTITLE6=Back Door Blues
TTITLE7=Evil
TTITLE8=What I'm Doin' Wrong
TTITLE9=Don't Say You Love Me
EXTD=
EXTT0=
EXTT1=
EXTT2=
EXTT3=
EXTT4=
EXTT5=
EXTT6=
EXTT7=
EXTT8=
EXTT9=
PLAYORDER=
